<?xml version="1.0" encoding="UTF-8"?><svg id="_レイヤー_2" xmlns="http://www.w3.org/2000/svg" viewBox="0 0 307.29 372.83"><defs><style>.cls-1{fill:#727272;}.cls-2{fill:none;stroke:#727272;stroke-miterlimit:10;stroke-width:4px;}</style></defs><g id="Text"><g><path class="cls-1" d="m51.97,314.06v24.2h27.97v-24.2h7.55v57.83h-7.55v-27.11h-27.97v27.11h-7.46v-57.83h7.46Z"/><path class="cls-1" d="m149.88,342.38c0,19.91-12.1,30.46-26.85,30.46s-26-11.84-26-29.34c0-18.36,11.41-30.37,26.85-30.37s26,12.1,26,29.25Zm-44.87.95c0,12.35,6.69,23.42,18.45,23.42s18.53-10.9,18.53-24.02c0-11.49-6.01-23.51-18.45-23.51s-18.53,11.41-18.53,24.11Z"/><path class="cls-1" d="m208.31,346.5c-.43-8.07-.94-17.76-.86-24.97h-.26c-1.97,6.78-4.38,13.99-7.29,21.96l-10.21,28.06h-5.66l-9.35-27.54c-2.74-8.15-5.06-15.62-6.69-22.48h-.17c-.17,7.21-.6,16.9-1.12,25.57l-1.54,24.79h-7.12l4.03-57.83h9.53l9.87,27.97c2.4,7.12,4.37,13.47,5.83,19.48h.26c1.46-5.83,3.52-12.18,6.09-19.48l10.3-27.97h9.52l3.6,57.83h-7.29l-1.46-25.39Z"/><path class="cls-1" d="m258.51,344.78h-22.48v20.85h25.05v6.26h-32.52v-57.83h31.23v6.26h-23.77v18.27h22.48v6.18Z"/></g></g><g id="Icons"><path class="cls-2" d="m49.06,161.36v122.89c.05,5.17,3.06,8.12,5.5,9.5,2.57,1.48,5.37,2.12,8.32,2.14h55.72c1.93.01,3.82-.77,5.17-2.14,1.35-1.36,2.12-3.24,2.12-5.14v-39.35h55.5v39.35c0,1.91.77,3.79,2.12,5.14,1.36,1.37,3.25,2.14,5.18,2.14h55.66c2.99-.01,5.77-.65,8.37-2.14,2.45-1.38,5.43-4.35,5.51-9.5v-122.89"/><path class="cls-2" d="m8.36,127.94l48.69-44.54V13.99c0-4.19,3.44-7.62,7.68-7.62h18.4c4.2,0,7.61,3.43,7.61,7.62v38.6L140.43,7.14c7.49-6.86,18.95-6.86,26.45,0l132.05,120.8c7.98,7.33,8.53,19.72,1.21,27.72-3.85,4.22-9.16,6.37-14.45,6.37-4.75,0-9.47-1.72-13.23-5.14l-118.8-108.7-118.83,108.7c-7.95,7.31-20.38,6.75-27.69-1.23-7.31-8-6.75-20.4,1.22-27.72Z"/></g></svg>